# xmcd
#
# Track frame offsets:
#	150
#	14728
#	33332
#	47020
#	67237
#	77533
#	88092
#	107475
#	122958
#	142459
#	154437
#	166522
#	180340
#	194588
#	211989
#	226194
#	239974
#	254673
#	267165
#	281799
#	293962
#	311777
#
# Disc length: 4352 seconds
#
# Revision: 0
# Processed by: cddbd v1.5.2PL0 Copyright (c) Steve Scherf et al.
# Submitted via: EasyCDDAExtractor 10.2.0.1
#
DISCID=5710fe16
DTITLE=Various Artist - Crossroads Airplay July 2004
DYEAR=2004
DGENRE=Gospel
TTITLE0=Palmetto State - We'll Meet Again
TTITLE1=Lauren Tally - Closet Religion
TTITLE2=Reggie Sadler Family - As The Old Fellow Used To Say
TTITLE3=Gospel Enforcers - Hold Yo God's Unchanging Hand
TTITLE4=Dale Ann Bradley - Walking In The Spirit
TTITLE5=Mended Wings - The Living Word
TTITLE6=Mark Bishop - Can I Pray For You
TTITLE7=Three Bridges - Cooling Water
TTITLE8=Tally Trio - His Life Or Mine
TTITLE9=Carolina Boys - I'm Ready To Go
TTITLE10=Jody Brown Indian Family - Ain't Gonna Run
TTITLE11=McKameys - God Is So Good To Me
TTITLE12=Inspirations - I Will Praise Him
TTITLE13=Poet Voices - There's No Such Thing
TTITLE14=Doyle Lawson - The Mighty Number
TTITLE15=Tim and Mary Lovelace - Gone Fishing
TTITLE16=Kingdom Heirs - I Know I'm Going There
TTITLE17=Ivan Parker - The Best Hallelujah In The House
TTITLE18=Calvary Construction Company - No Blues In Heaven
TTITLE19=Dixie Echoes - Ship Of Zion
TTITLE20=Dove Brothers - Jesus Died For Me
TTITLE21=Newfound Road - He Was My Lighthouse
EXTD=
EXTT0=
EXTT1=
EXTT2=
EXTT3=
EXTT4=
EXTT5=
EXTT6=
EXTT7=
EXTT8=
EXTT9=
EXTT10=
EXTT11=
EXTT12=
EXTT13=
EXTT14=
EXTT15=
EXTT16=
EXTT17=
EXTT18=
EXTT19=
EXTT20=
EXTT21=
PLAYORDER=
